#!OML:ASF E:\Style4\Style4.ASF
:FULLY-SPECIFIED
:DEGREES
1064
root 1.0251 17.9566 -0.110486 0.457642 -31.5165 3.72075
lowerback 5.61132 1.50569 -3.52134
upperback 2.49188 1.7934 -0.972451
thorax -0.655411 0.870338 0.864702
lowerneck 4.14264 2.71995 -1.06069
upperneck 8.59142 3.39313 2.56664
head 1.91887 1.68178 0.994685
rclavicle 1.74472e-014 8.77759e-015
rhumerus -33.2293 8.60938 -91.2151
rradius 47.0407
rwrist -9.2305
rhand 10.4527 -5.98807
rfingers 7.12502
rthumb 35.5556 -32.4125
lclavicle 1.74472e-014 8.77759e-015
lhumerus -36.9087 -13.4607 91.5562
lradius 47.8979
lwrist 9.71067
lhand 10.3529 44.775
lfingers 7.12502
lthumb 35.461 71.2222
rfemur -16.8517 17.1048 10.8621
rtibia 26.0339
rfoot -15.6897 4.85904
rtoes -13.6347
lfemur -2.94929 7.65027 -27.8783
ltibia 18.5424
lfoot -24.7732 23.3897
ltoes -4.15471
1065
root 1.02956 17.9597 -0.109772 0.451586 -31.4789 3.71864
lowerback 5.58219 1.49905 -3.49366
upperback 2.56545 1.78905 -0.963352
thorax -0.562801 0.866036 0.860786
lowerneck 4.26776 2.67047 -1.09501
upperneck 8.25265 3.33289 2.57214
head 1.78827 1.65007 0.994265
rclavicle -3.08008e-014 -7.8023e-015
rhumerus -33.1056 8.74772 -91.201
rradius 46.9199
rwrist -9.18958
rhand 10.2418 -5.80641
rfingers 7.12502
rthumb 35.3557 -32.2787
lclavicle -3.08008e-014 -7.8023e-015
lhumerus -36.7058 -13.7318 91.6047
lradius 47.5968
lwrist 9.87932
lhand 10.2075 44.6178
lfingers 7.12502
lthumb 35.3231 71.0978
rfemur -16.791 17.1079 10.8509
rtibia 25.947
rfoot -15.6307 4.82267
rtoes -13.5556
lfemur -2.87785 7.5835 -27.8928
ltibia 18.4227
lfoot -24.7316 23.3387
ltoes -3.67666
1066
root 1.03486 17.9622 -0.110167 0.403204 -31.4745 3.71696
lowerback 5.57076 1.50503 -3.43401
upperback 2.67224 1.80258 -0.969457
thorax -0.445165 0.870179 0.822339
lowerneck 4.33891 2.6247 -1.08708
upperneck 7.95811 3.27965 2.55132
head 1.68275 1.62299 0.980426
rclavicle 7.49791e-015 -1.02747e-014
rhumerus -32.9385 8.85499 -91.1947
rradius 46.8378
rwrist -9.14835
rhand 10.1548 -5.73104
rfingers 7.12502
rthumb 35.2731 -32.2229
lclavicle 7.49791e-015 -1.02747e-014
lhumerus -36.5143 -14.012 91.6441
lradius 47.3361
lwrist 10.0046
lhand 10.0299 44.2983
lfingers 7.12502
lthumb 35.1547 70.8181
rfemur -16.6817 17.1234 10.8499
rtibia 25.8264
rfoot -15.5281 4.82583
rtoes -13.3689
lfemur -2.77846 7.47111 -27.912
ltibia 18.3218
lfoot -24.7426 23.3626
ltoes -3.16733
1067
root 1.04056 17.9663 -0.113233 0.339757 -31.4636 3.68651
lowerback 5.61851 1.50611 -3.38726
upperback 2.77957 1.80626 -0.956384
thorax -0.360442 0.869683 0.809841
lowerneck 4.40243 2.59017 -1.07863
upperneck 7.67936 3.23968 2.55612
head 1.58348 1.6029 0.97511
rclavicle 5.01667e-014 -6.07536e-015
rhumerus -32.8204 8.95618 -91.1893
rradius 46.8207
rwrist -9.08539
rhand 10.1405 -5.6374
rfingers 7.12502
rthumb 35.2596 -32.1324
lclavicle 5.01667e-014 -6.07536e-015
lhumerus -36.3345 -14.2165 91.6668
lradius 47.1281
lwrist 10.0184
lhand 9.982 44.2114
lfingers 7.12502
lthumb 35.1093 70.7419
rfemur -16.5378 17.1383 10.8945
rtibia 25.6798
rfoot -15.4528 4.81556
rtoes -13.5785
lfemur -2.65874 7.34906 -27.8926
ltibia 18.2256
lfoot -24.8246 23.3929
ltoes -2.74102
1068
root 1.04638 17.9687 -0.117674 0.260039 -31.4565 3.68955
lowerback 5.69777 1.49392 -3.40043
upperback 2.86473 1.78754 -0.921751
thorax -0.317523 0.858209 0.853135
lowerneck 4.5843 2.57062 -1.15956
upperneck 7.32229 3.21688 2.57277
head 1.43809 1.58816 0.985378
rclavicle -2.76311e-014 9.26834e-015
rhumerus -32.8207 9.14422 -91.1641
rradius 46.9157
rwrist -9.06787
rhand 10.1265 -5.69962
rfingers 7.12502
rthumb 35.2463 -32.1978
lclavicle -2.76311e-014 9.26834e-015
lhumerus -36.2038 -14.3878 91.7443
lradius 46.9902
lwrist 10.0894
lhand 10.0443 44.3821
lfingers 7.12502
lthumb 35.1684 70.8987
rfemur -16.3963 17.144 10.9018
rtibia 25.531
rfoot -15.3799 4.81594
rtoes -13.6887
lfemur -2.54781 7.28082 -27.9057
ltibia 18.1304
lfoot -24.7999 23.508
ltoes -2.85542
